<svg xmlns="http://www.w3.org/2000/svg" viewBox="0 0 96 120" x="0px" y="0px"><title>Artboard 8</title><g><path d="M48,36a2,2,0,0,0,0-4A16,16,0,1,0,64,48a2,2,0,0,0-4,0A12,12,0,1,1,48,36Z"/><path d="M86.16,36.1211a2.0015,2.0015,0,0,0-3.82,1.1953A36.1354,36.1354,0,1,1,58.6836,13.6582a2,2,0,1,0,1.1953-3.8164A40.1308,40.1308,0,1,0,86.16,36.1211Z"/><path d="M51.8086,22.2773a2.1632,2.1632,0,0,0-2-2.1757C49.2109,20.0488,48.6133,20,48,20A28,28,0,1,0,76,48a17.71,17.71,0,0,0-.1328-2.1641,2.0149,2.0149,0,1,0-3.9531.7012C71.957,47.0215,72,47.5039,72,48A24,24,0,1,1,48,24c.4961,0,.9766.0449,1.4609.0859l.375.0332A1.891,1.891,0,0,0,51.8086,22.2773Z"/><path d="M60,26v7.1719L46.5859,46.5859a2,2,0,1,0,2.8282,2.8282L62.8281,36H70a1.9985,1.9985,0,0,0,1.4141-.5859l12-12A2,2,0,0,0,82,20H76V14a2,2,0,0,0-3.4141-1.4141l-12,12A1.9987,1.9987,0,0,0,60,26Zm4,.8281,8-8V22a1.9988,1.9988,0,0,0,2,2h3.1719l-8,8H64Z"/></g><text x="0" y="111" fill="#000000" font-size="5px" font-weight="bold" font-family="'Helvetica Neue', Helvetica, Arial-Unicode, Arial, Sans-serif">Created by Deemak Daksina</text><text x="0" y="116" fill="#000000" font-size="5px" font-weight="bold" font-family="'Helvetica Neue', Helvetica, Arial-Unicode, Arial, Sans-serif">from the Noun Project</text></svg>